<svg xmlns="http://www.w3.org/2000/svg" xmlns:xlink="http://www.w3.org/1999/xlink" contentStyleType="text/css" data-diagram-type="DESCRIPTION" height="441px" preserveAspectRatio="none" style="width:447px;height:441px;background:#FFFFFF;" version="1.1" viewBox="0 0 447 441" width="447px" zoomAndPan="magnify"><defs/><g><!--cluster EasySave WPF 3.0--><g class="cluster" data-entity="EasySave WPF 3.0" data-source-line="5" data-uid="ent0004" id="cluster_EasySave WPF 3.0"><rect fill="none" height="424" rx="2.5" ry="2.5" style="stroke:#181818;stroke-width:1;" width="209.44" x="231.67" y="7"/><text fill="#000000" font-family="sans-serif" font-size="14" font-weight="bold" lengthAdjust="spacing" textLength="144.4365" x="264.1717" y="21.9951">EasySave WPF 3.0</text></g><!--entity UC1--><g class="entity" data-entity="UC1" data-source-line="6" data-uid="ent0005" id="entity_UC1"><ellipse cx="336.3919" cy="137.0044" fill="#F1F1F1" rx="86.2219" ry="19.6444" style="stroke:#181818;stroke-width:0.5;"/><text fill="#000000" font-family="sans-serif" font-size="14" lengthAdjust="spacing" textLength="145.1338" x="263.825" y="141.6528">Manage Backup Jobs</text></g><!--entity UC2--><g class="entity" data-entity="UC2" data-source-line="7" data-uid="ent0006" id="entity_UC2"><ellipse cx="336.3878" cy="225.9976" fill="#F1F1F1" rx="75.4878" ry="17.4976" style="stroke:#181818;stroke-width:0.5;"/><text fill="#000000" font-family="sans-serif" font-size="14" lengthAdjust="spacing" textLength="119.9092" x="276.4332" y="230.646">Execute Backups</text></g><!--entity UC3--><g class="entity" data-entity="UC3" data-source-line="8" data-uid="ent0007" id="entity_UC3"><ellipse cx="336.3889" cy="62.0038" fill="#F1F1F1" rx="88.7189" ry="20.1438" style="stroke:#181818;stroke-width:0.5;"/><text fill="#000000" font-family="sans-serif" font-size="14" lengthAdjust="spacing" textLength="150.835" x="260.9714" y="66.6522">Configure Application</text></g><!--entity UC4--><g class="entity" data-entity="UC4" data-source-line="9" data-uid="ent0008" id="entity_UC4"><ellipse cx="336.3936" cy="312.0027" fill="#F1F1F1" rx="74.8136" ry="17.3627" style="stroke:#181818;stroke-width:0.5;"/><text fill="#000000" font-family="sans-serif" font-size="14" lengthAdjust="spacing" textLength="118.2754" x="277.2559" y="316.6512">Monitor Progress</text></g><!--entity UC5--><g class="entity" data-entity="UC5" data-source-line="10" data-uid="ent0009" id="entity_UC5"><ellipse cx="336.3908" cy="398.0002" fill="#F1F1F1" rx="71.4508" ry="16.6902" style="stroke:#181818;stroke-width:0.5;"/><text fill="#000000" font-family="sans-serif" font-size="14" lengthAdjust="spacing" textLength="110.0107" x="281.3855" y="402.6486">Remote Control</text></g><!--entity User--><g class="entity" data-entity="User" data-source-line="2" data-uid="ent0002" id="entity_User"><ellipse cx="63.3351" cy="167.35" fill="#F1F1F1" rx="8" ry="8" style="stroke:#181818;stroke-width:0.5;"/><path d="M63.3351,175.35 L63.3351,202.35 M50.3351,183.35 L76.3351,183.35 M63.3351,202.35 L50.3351,217.35 M63.3351,202.35 L76.3351,217.35" fill="none" style="stroke:#181818;stroke-width:0.5;"/><text fill="#000000" font-family="sans-serif" font-size="14" lengthAdjust="spacing" textLength="31.9102" x="47.38" y="231.8451">User</text></g><!--entity RemoteUser--><g class="entity" data-entity="RemoteUser" data-source-line="3" data-uid="ent0003" id="entity_RemoteUser"><ellipse cx="63.3364" cy="368.35" fill="#F1F1F1" rx="8" ry="8" style="stroke:#181818;stroke-width:0.5;"/><path d="M63.3364,376.35 L63.3364,403.35 M50.3364,384.35 L76.3364,384.35 M63.3364,403.35 L50.3364,418.35 M63.3364,403.35 L76.3364,418.35" fill="none" style="stroke:#181818;stroke-width:0.5;"/><text fill="#000000" font-family="sans-serif" font-size="14" lengthAdjust="spacing" textLength="114.6729" x="6" y="432.8451">Remote Console</text></g><!--link UC1 to UC2--><g class="link" data-entity-1="UC1" data-entity-2="UC2" data-source-line="12" data-uid="lnk10" id="link_UC1_UC2"><path d="M336.39,157.03 C336.39,172.48 336.39,187.62 336.39,202.42" fill="none" id="UC1-to-UC2" style="stroke:#181818;stroke-width:1;stroke-dasharray:7.0,7.0;"/><polygon fill="#181818" points="336.39,208.42,340.39,199.42,336.39,203.42,332.39,199.42,336.39,208.42" style="stroke:#181818;stroke-width:1;"/><text fill="#000000" font-family="sans-serif" font-size="13" lengthAdjust="spacing" textLength="61.1851" x="294.39" y="187.1369">&#171;extend&#187;</text></g><!--link UC2 to UC4--><g class="link" data-entity-1="UC2" data-entity-2="UC4" data-source-line="13" data-uid="lnk11" id="link_UC2_UC4"><path d="M336.39,243.8 C336.39,258.55 336.39,273.42 336.39,288.18" fill="none" id="UC2-to-UC4" style="stroke:#181818;stroke-width:1;stroke-dasharray:7.0,7.0;"/><polygon fill="#181818" points="336.39,294.18,340.39,285.18,336.39,289.18,332.39,285.18,336.39,294.18" style="stroke:#181818;stroke-width:1;"/><text fill="#000000" font-family="sans-serif" font-size="13" lengthAdjust="spacing" textLength="63.0068" x="293.39" y="273.6369">&#171;include&#187;</text></g><!--link User to UC1--><g class="link" data-entity-1="User" data-entity-2="UC1" data-source-line="16" data-uid="lnk12" id="link_User_UC1"><path d="M79.69,193.6 C116.25,185.51 204.3118,166.0167 267.5618,152.0167" fill="none" id="User-to-UC1" style="stroke:#181818;stroke-width:1;"/><polygon fill="#181818" points="273.42,150.72,263.7682,148.7595,268.5382,151.8006,265.4971,156.5705,273.42,150.72" style="stroke:#181818;stroke-width:1;"/></g><!--link User to UC2--><g class="link" data-entity-1="User" data-entity-2="UC2" data-source-line="17" data-uid="lnk13" id="link_User_UC2"><path d="M79.69,198.64 C115.08,202.43 198.2141,211.3212 261.2541,218.0712" fill="none" id="User-to-UC2" style="stroke:#181818;stroke-width:1;"/><polygon fill="#181818" points="267.22,218.71,258.697,213.7745,262.2484,218.1777,257.8453,221.7291,267.22,218.71" style="stroke:#181818;stroke-width:1;"/></g><!--link User to UC3--><g class="link" data-entity-1="User" data-entity-2="UC3" data-source-line="18" data-uid="lnk14" id="link_User_UC3"><path d="M79.53,186.18 C107.16,166.87 167.93,126.06 223.67,100 C241.67,91.58 256.3711,85.9669 274.7711,79.9069" fill="none" id="User-to-UC3" style="stroke:#181818;stroke-width:1;"/><polygon fill="#181818" points="280.47,78.03,270.6704,77.0461,275.7209,79.5941,273.173,84.6446,280.47,78.03" style="stroke:#181818;stroke-width:1;"/></g><!--link User to UC4--><g class="link" data-entity-1="User" data-entity-2="UC4" data-source-line="19" data-uid="lnk15" id="link_User_UC4"><path d="M79.64,216.45 C95.39,235.05 121.67,262.36 150.67,277 C185.5,294.57 222.1054,302.6234 257.5954,307.0134" fill="none" id="User-to-UC4" style="stroke:#181818;stroke-width:1;"/><polygon fill="#181818" points="263.55,307.75,255.1091,302.6754,258.5878,307.1362,254.127,310.6149,263.55,307.75" style="stroke:#181818;stroke-width:1;"/></g><!--link RemoteUser to UC5--><g class="link" data-entity-1="RemoteUser" data-entity-2="UC5" data-source-line="21" data-uid="lnk16" id="link_RemoteUser_UC5"><path d="M121.16,398 C162.92,398 213.93,398 258.65,398" fill="none" id="RemoteUser-to-UC5" style="stroke:#181818;stroke-width:1;"/><polygon fill="#181818" points="264.65,398,255.65,394,259.65,398,255.65,402,264.65,398" style="stroke:#181818;stroke-width:1;"/></g><!--link UC5 to UC2--><g class="link" data-entity-1="UC5" data-entity-2="UC2" data-source-line="22" data-uid="lnk17" id="link_UC5_UC2"><path d="M291.35,384.7 C269.14,376.49 243.03,364.18 223.67,347 C188.23,315.54 145.44,287.55 176.21,251.5 C198.33,225.58 229.3202,218.5248 262.1902,218.2248" fill="none" id="UC5-to-UC2" style="stroke:#181818;stroke-width:1;stroke-dasharray:7.0,7.0;"/><polygon fill="#181818" points="268.19,218.17,259.1539,214.2523,263.1902,218.2156,259.2269,222.252,268.19,218.17" style="stroke:#181818;stroke-width:1;"/><text fill="#000000" font-family="sans-serif" font-size="13" lengthAdjust="spacing" textLength="63.0068" x="151.67" y="264.5669">&#171;include&#187;</text></g><!--link UC5 to UC4--><g class="link" data-entity-1="UC5" data-entity-2="UC4" data-source-line="23" data-uid="lnk18" id="link_UC5_UC4"><path d="M336.39,381.01 C336.39,366.23 336.39,350.87 336.39,335.84" fill="none" id="UC5-to-UC4" style="stroke:#181818;stroke-width:1;stroke-dasharray:7.0,7.0;"/><polygon fill="#181818" points="336.39,329.84,332.39,338.84,336.39,334.84,340.39,338.84,336.39,329.84" style="stroke:#181818;stroke-width:1;"/><text fill="#000000" font-family="sans-serif" font-size="13" lengthAdjust="spacing" textLength="63.0068" x="293.39" y="359.9069">&#171;include&#187;</text></g><!--SRC=[NL3BJiCm4BpxArQ-jw99Ua5L95gL0n9I1QeuByxMM1XlP3ke2F7ln0uFDpVFpdXdPYsT8aG6R_HBXCvuKj6m4wWYUpW6yZ_F1thZI6a0641E47Ri0bkIGgIFwBGba7iC7u_uJl1qk8LwUINXKm0CWHG6WkDkbJVSeqDDi4NrElHmnyz1NgYghDgVIGtnLpQJr5aoPZWPFNY2cxwtHc4gS2bi9aTs9bKvUDQUmcpPUjOhUhPZByY1bsrET0sR3PqZkQvjCrDDJ9CPuvGTEXgfBo7ofHQBnAvAK9MWBa4ZH77aQROMALZX_k_nHypClm40]--></g></svg>